<svg width="1200" height="840" viewBox="0 0 1200 840" fill="none" xmlns="http://www.w3.org/2000/svg">
  <rect width="1200" height="840" rx="36" fill="#F3F5F7"/>
  <rect x="42" y="42" width="1116" height="756" rx="30" fill="#FFFFFF" stroke="#D7DEE2"/>
  <rect x="42" y="42" width="222" height="756" rx="30" fill="#112833"/>
  <rect x="78" y="88" width="126" height="22" rx="11" fill="#FFFFFF"/>
  <rect x="78" y="140" width="150" height="42" rx="18" fill="#1A5E73"/>
  <rect x="78" y="200" width="124" height="18" rx="9" fill="#6D8792"/>
  <rect x="78" y="236" width="132" height="18" rx="9" fill="#6D8792"/>
  <rect x="78" y="272" width="118" height="18" rx="9" fill="#6D8792"/>
  <rect x="78" y="308" width="138" height="18" rx="9" fill="#6D8792"/>
  <rect x="78" y="344" width="122" height="18" rx="9" fill="#6D8792"/>
  <rect x="78" y="380" width="128" height="18" rx="9" fill="#6D8792"/>
  <rect x="298" y="76" width="822" height="72" rx="24" fill="#F4F7F8"/>
  <rect x="334" y="102" width="188" height="20" rx="10" fill="#112833"/>
  <rect x="904" y="96" width="94" height="30" rx="15" fill="#E6EEF0"/>
  <rect x="1014" y="96" width="72" height="30" rx="15" fill="#CA6C2F"/>
  <rect x="298" y="176" width="260" height="128" rx="24" fill="#F7F2EA" stroke="#E5D5BF"/>
  <rect x="584" y="176" width="260" height="128" rx="24" fill="#EEF4F5" stroke="#D8E4E7"/>
  <rect x="870" y="176" width="250" height="128" rx="24" fill="#EFF6F1" stroke="#D8E7DC"/>
  <rect x="326" y="214" width="124" height="16" rx="8" fill="#A78567"/>
  <rect x="326" y="242" width="74" height="34" rx="17" fill="#112833"/>
  <rect x="612" y="214" width="116" height="16" rx="8" fill="#7B98A3"/>
  <rect x="612" y="242" width="86" height="34" rx="17" fill="#1A5E73"/>
  <rect x="898" y="214" width="116" height="16" rx="8" fill="#82A18E"/>
  <rect x="898" y="242" width="86" height="34" rx="17" fill="#2C7A57"/>
  <rect x="298" y="336" width="822" height="426" rx="28" fill="#FFFFFF" stroke="#DDE5E8"/>
  <rect x="330" y="374" width="94" height="18" rx="9" fill="#112833"/>
  <rect x="440" y="374" width="94" height="18" rx="9" fill="#7B98A3"/>
  <rect x="550" y="374" width="94" height="18" rx="9" fill="#7B98A3"/>
  <rect x="660" y="374" width="94" height="18" rx="9" fill="#7B98A3"/>
  <rect x="770" y="374" width="94" height="18" rx="9" fill="#7B98A3"/>
  <rect x="330" y="428" width="758" height="72" rx="20" fill="#F8FAFB"/>
  <rect x="352" y="452" width="132" height="16" rx="8" fill="#112833"/>
  <rect x="534" y="452" width="96" height="16" rx="8" fill="#8A9AA1"/>
  <rect x="682" y="448" width="84" height="24" rx="12" fill="#E7F2EF"/>
  <rect x="820" y="448" width="74" height="24" rx="12" fill="#EEF4F5"/>
  <rect x="922" y="448" width="136" height="24" rx="12" fill="#F7F2EA"/>
  <rect x="330" y="524" width="758" height="72" rx="20" fill="#F8FAFB"/>
  <rect x="352" y="548" width="132" height="16" rx="8" fill="#112833"/>
  <rect x="534" y="548" width="96" height="16" rx="8" fill="#8A9AA1"/>
  <rect x="682" y="544" width="84" height="24" rx="12" fill="#E7F2EF"/>
  <rect x="820" y="544" width="74" height="24" rx="12" fill="#EEF4F5"/>
  <rect x="922" y="544" width="136" height="24" rx="12" fill="#F7F2EA"/>
  <rect x="330" y="620" width="246" height="104" rx="24" fill="#F4F7F8"/>
  <rect x="606" y="620" width="226" height="104" rx="24" fill="#F4F7F8"/>
  <rect x="862" y="620" width="226" height="104" rx="24" fill="#F4F7F8"/>
</svg>
