<svg width="1200" height="840" viewBox="0 0 1200 840" fill="none" xmlns="http://www.w3.org/2000/svg">
  <rect width="1200" height="840" rx="36" fill="#F4ECDD"/>
  <rect x="38" y="38" width="1124" height="764" rx="28" fill="#FFF9F1" stroke="#D9C8AF"/>
  <rect x="72" y="72" width="1056" height="76" rx="22" fill="#112C38"/>
  <circle cx="116" cy="110" r="18" fill="#CA6C2F"/>
  <rect x="150" y="96" width="208" height="28" rx="14" fill="#F9F4EC"/>
  <rect x="850" y="96" width="110" height="28" rx="14" fill="#2A6E81"/>
  <rect x="974" y="96" width="110" height="28" rx="14" fill="#CA6C2F"/>
  <rect x="72" y="176" width="1056" height="212" rx="28" fill="url(#paint0_linear)"/>
  <rect x="112" y="222" width="160" height="18" rx="9" fill="#F6D4BF"/>
  <rect x="112" y="254" width="412" height="54" rx="18" fill="#FFF8EF"/>
  <rect x="112" y="322" width="476" height="18" rx="9" fill="#E8F1F3"/>
  <rect x="112" y="352" width="420" height="18" rx="9" fill="#E8F1F3"/>
  <rect x="112" y="410" width="234" height="36" rx="18" fill="#CA6C2F"/>
  <circle cx="958" cy="280" r="104" fill="#FFF9F1" fill-opacity="0.24"/>
  <circle cx="994" cy="236" r="34" fill="#F6D4BF"/>
  <circle cx="906" cy="326" r="54" fill="#F6D4BF" fill-opacity="0.8"/>
  <rect x="72" y="430" width="270" height="300" rx="26" fill="#FFFFFF" stroke="#E4D7C4"/>
  <rect x="366" y="430" width="270" height="300" rx="26" fill="#FFFFFF" stroke="#E4D7C4"/>
  <rect x="660" y="430" width="270" height="300" rx="26" fill="#FFFFFF" stroke="#E4D7C4"/>
  <rect x="954" y="430" width="174" height="300" rx="26" fill="#FFF4EA" stroke="#E4D7C4"/>
  <rect x="92" y="450" width="230" height="146" rx="20" fill="#8EB7C2"/>
  <rect x="386" y="450" width="230" height="146" rx="20" fill="#D9B08A"/>
  <rect x="680" y="450" width="230" height="146" rx="20" fill="#9CB7A3"/>
  <rect x="980" y="456" width="120" height="18" rx="9" fill="#C68C66"/>
  <rect x="980" y="486" width="112" height="18" rx="9" fill="#D9C8AF"/>
  <rect x="980" y="530" width="122" height="98" rx="22" fill="#FFFFFF"/>
  <rect x="980" y="650" width="122" height="34" rx="17" fill="#CA6C2F"/>
  <rect x="96" y="620" width="118" height="16" rx="8" fill="#D9C8AF"/>
  <rect x="96" y="648" width="164" height="18" rx="9" fill="#112C38"/>
  <rect x="96" y="678" width="138" height="14" rx="7" fill="#9CAAB0"/>
  <rect x="386" y="620" width="112" height="16" rx="8" fill="#D9C8AF"/>
  <rect x="386" y="648" width="148" height="18" rx="9" fill="#112C38"/>
  <rect x="386" y="678" width="124" height="14" rx="7" fill="#9CAAB0"/>
  <rect x="680" y="620" width="126" height="16" rx="8" fill="#D9C8AF"/>
  <rect x="680" y="648" width="156" height="18" rx="9" fill="#112C38"/>
  <rect x="680" y="678" width="144" height="14" rx="7" fill="#9CAAB0"/>
  <defs>
    <linearGradient id="paint0_linear" x1="72" y1="176" x2="1128" y2="388" gradientUnits="userSpaceOnUse">
      <stop stop-color="#1B5C71"/>
      <stop offset="1" stop-color="#0F3343"/>
    </linearGradient>
  </defs>
</svg>
